<svg width="141" height="141" viewBox="0 0 141 141" fill="none" xmlns="http://www.w3.org/2000/svg">
<rect width="141" height="141" fill="#0099D8" />
<path d="M41.5731 73.5042H100.455L71.014 108.569L41.5731 73.5042ZM35.4396 63.1782V73.5042L71.014 115.594L106.588 73.5042V63.1782H35.4396Z" fill="white" />
<path d="M35.4458 60.2583V25H44.2658C51.258 25.3809 58.1827 28.8209 58.3729 38.4335C58.5691 48.3725 48.2894 52.272 45.3269 52.272V60.2583H35.4458ZM46.6149 34.262L45.0141 34.0141L44.9343 43.5118C47.5901 43.6569 49.1849 40.2411 48.688 37.6717C48.0747 34.6005 47.1547 34.5521 46.6149 34.262Z" fill="white" />
<path d="M59.7588 25H75.939V33.9536H69.4559V38.234H75.7918V46.5588H69.4559V51.9334H75.939V60.2583H59.7588V25Z" fill="white" />
<path d="M77.7487 25.1875V60.2584L87.7401 60.2705L87.6911 50.3375L91.9784 58.8921L96.7257 50.3193V60.2584H106.607V25.1875H96.7257L92.1747 34.9271L87.6297 25.1875H77.7487Z" fill="white" />
<path d="M110.783 30.8836H109.966V27.0255H111.399C112.386 27.0255 112.971 27.3149 112.971 28.2022C112.983 28.3351 112.967 28.4691 112.925 28.595C112.883 28.7209 112.816 28.8357 112.728 28.9315C112.64 29.0274 112.533 29.1021 112.415 29.1505C112.297 29.1988 112.171 29.2197 112.045 29.2118L113.026 30.9093H112.057L111.173 29.2761H110.783V30.8836ZM111.508 28.5945C111.88 28.5945 112.118 28.5173 112.118 28.0865C112.118 27.6557 111.697 27.6621 111.386 27.6621H110.807V28.5945H111.508ZM111.38 32.549C109.485 32.549 107.802 31.2244 107.802 28.9481C107.77 28.1952 107.951 27.4491 108.324 26.806C108.696 26.1628 109.243 25.6521 109.893 25.3396C110.543 25.0272 111.267 24.9272 111.972 25.0526C112.676 25.1781 113.329 25.5232 113.846 26.0435C114.363 26.5638 114.721 27.2354 114.873 27.9719C115.024 28.7085 114.964 29.4761 114.699 30.176C114.433 30.8758 113.976 31.4759 113.384 31.8988C112.793 32.3218 112.095 32.5482 111.38 32.549ZM111.38 26.1832C110.685 26.1832 110.019 26.4745 109.527 26.993C109.035 27.5115 108.759 28.2148 108.759 28.9481C108.759 29.6815 109.035 30.3847 109.527 30.9033C110.019 31.4218 110.685 31.7131 111.38 31.7131C112.054 31.6788 112.69 31.3722 113.156 30.8568C113.621 30.3414 113.881 29.6568 113.881 28.9449C113.881 28.233 113.621 27.5484 113.156 27.033C112.69 26.5176 112.054 26.211 111.38 26.1767" fill="white" />
</svg>
